<?xml version="1.0" standalone="no"?>
<!DOCTYPE svg PUBLIC "-//W3C//DTD SVG 20010904//EN"
 "http://www.w3.org/TR/2001/REC-SVG-20010904/DTD/svg10.dtd">
<svg version="1.0" xmlns="http://www.w3.org/2000/svg"
 width="238.000000pt" height="243.000000pt" viewBox="0 0 238.000000 243.000000"
 preserveAspectRatio="xMidYMid meet">

<g transform="translate(0.000000,243.000000) scale(0.100000,-0.100000)"
fill="#000000" stroke="none">
<path d="M1132 2370 c-232 -29 -434 -144 -593 -339 l-36 -43 -21 36 c-13 23
-29 36 -42 36 -26 0 -26 -28 -1 -109 10 -34 16 -61 12 -61 -8 0 -31 -45 -31
-60 0 -6 15 -11 33 -11 22 -1 10 -6 -37 -15 -70 -14 -106 -35 -106 -62 0 -33
113 -162 142 -162 23 0 23 -8 -2 -45 -11 -17 -17 -38 -14 -48 11 -34 -6 -85
-41 -127 -19 -23 -32 -47 -28 -53 6 -10 -6 -8 -52 8 -18 6 -18 5 -3 -7 9 -7
25 -18 35 -24 14 -9 8 -11 -32 -7 -37 3 -46 2 -35 -6 8 -6 26 -11 41 -11 29 0
49 -17 49 -40 0 -9 15 -31 33 -48 26 -25 45 -34 85 -39 l52 -6 16 -54 c8 -29
13 -59 11 -66 -5 -13 -11 -1 -21 46 -4 15 -13 27 -21 27 -7 0 -16 8 -20 19 -4
13 -19 21 -48 25 -23 4 -49 14 -59 23 -16 14 -17 14 -8 -16 16 -57 72 -170 93
-188 11 -10 17 -12 13 -5 -4 6 -2 12 4 12 7 0 14 -9 17 -21 3 -12 11 -18 19
-15 8 3 14 1 14 -3 0 -5 3 -16 6 -25 3 -9 1 -16 -4 -16 -6 0 -12 8 -14 18 -2
11 -6 13 -10 6 -11 -16 36 -74 117 -146 39 -34 69 -68 69 -75 -1 -7 7 -13 17
-13 11 0 45 -13 77 -29 152 -76 290 -106 460 -99 102 4 109 3 104 -14 -5 -21
-1 -22 32 -7 13 6 26 19 29 28 2 10 23 23 48 30 24 7 74 29 111 47 37 19 72
34 77 34 6 0 11 -28 13 -62 l3 -63 70 0 70 0 5 65 5 65 65 5 65 5 3 101 c2 79
0 104 -12 113 -13 11 -10 19 20 61 37 52 89 159 110 230 16 53 17 60 5 60 -5
0 -19 -33 -31 -72 -28 -94 -46 -124 -66 -107 -8 6 -87 26 -177 43 l-162 32 -7
61 c-8 75 -25 109 -77 156 -57 52 -99 49 -71 -4 9 -15 4 -29 -25 -70 -37 -55
-43 -77 -22 -98 10 -10 9 -11 -5 -6 -36 14 -31 46 19 112 18 25 23 41 18 65
-8 49 5 64 41 45 16 -8 38 -24 48 -36 28 -30 33 -27 38 28 6 58 35 118 71 145
l26 19 74 -70 c52 -50 91 -77 128 -91 46 -17 57 -26 78 -65 27 -54 60 -70 117
-57 111 25 145 139 74 250 -16 25 -49 98 -74 162 -54 139 -100 234 -130 266
-19 21 -21 35 -21 137 0 118 -1 119 -42 82 l-23 -20 0 21 c0 11 4 32 10 46 6
16 6 26 0 26 -14 0 -127 -97 -151 -129 -20 -27 -22 -28 -77 -19 -61 10 -168 4
-242 -14 -96 -24 -243 -106 -290 -163 -14 -17 -13 -17 8 -11 13 5 55 9 93 10
l69 3 -71 -134 c-81 -153 -98 -203 -109 -322 l-9 -86 4 95 c4 112 27 189 91
296 41 69 48 86 45 109 -1 6 -45 10 -109 10 -59 1 -119 4 -134 8 -25 6 -28 12
-28 47 0 34 -3 40 -20 40 -12 0 -34 -7 -50 -15 l-30 -16 0 32 c0 25 -10 41
-42 71 -24 22 -55 42 -70 45 -42 8 -34 27 7 20 29 -5 48 1 104 34 241 139 524
143 773 12 l67 -35 25 28 c14 16 26 32 26 36 0 10 -100 74 -170 109 -127 64
-328 97 -478 79z m-344 -349 c12 -33 8 -41 -23 -41 -12 0 -32 -9 -45 -20 -16
-14 -38 -20 -69 -20 -25 0 -55 -2 -66 -5 -12 -3 -30 4 -45 16 -20 16 -20 18
-4 10 11 -5 46 -7 77 -4 49 5 60 11 98 49 24 24 49 44 55 44 7 0 17 -13 22
-29z m-238 -231 c0 -5 -4 -10 -10 -10 -5 0 -10 5 -10 10 0 6 5 10 10 10 6 0
10 -4 10 -10z m376 -212 l19 -23 -25 20 c-14 11 -27 21 -29 22 -2 2 0 3 6 3 5
0 18 -10 29 -22z m38 -44 c9 -24 2 -26 -12 -4 -7 11 -8 20 -3 20 5 0 12 -7 15
-16z m-163 -37 c-10 -9 -11 -8 -5 6 3 10 9 15 12 12 3 -3 0 -11 -7 -18z m-31
-31 c0 -2 -8 -10 -17 -17 -16 -13 -17 -12 -4 4 13 16 21 21 21 13z m265 -107
c9 -17 15 -34 13 -39 -2 -5 -11 9 -20 30 -20 47 -15 53 7 9z m74 -89 c-10 -62
-16 -79 -27 -75 -7 3 -16 5 -18 5 -2 0 -4 8 -3 18 0 10 3 12 6 5 11 -29 22 -9
34 62 6 42 14 73 17 71 2 -3 -1 -42 -9 -86z m-384 22 c-3 -3 -11 0 -18 7 -9
10 -8 11 6 5 10 -3 15 -9 12 -12z m92 2 c-3 -3 -12 -4 -19 -1 -8 3 -5 6 6 6
11 1 17 -2 13 -5z m240 -16 c-3 -8 -6 -5 -6 6 -1 11 2 17 5 13 3 -3 4 -12 1
-19z m-323 -84 c41 -14 50 -14 57 -3 6 10 9 4 9 -18 0 -26 -4 -33 -20 -33 -11
0 -56 -7 -101 -16 -73 -15 -82 -15 -96 -1 -14 14 -14 17 3 35 21 22 72 52 90
52 6 0 32 -7 58 -16z m479 -68 c25 -19 48 -32 51 -29 9 9 36 -18 36 -36 -1
-14 -2 -14 -11 2 -5 9 -19 17 -31 17 -11 0 -29 11 -40 25 -11 14 -39 37 -64
51 -24 14 -44 28 -44 30 0 8 57 -25 103 -60z m260 -22 c-69 -60 -148 -207
-168 -314 l-15 -75 5 66 c3 44 12 83 29 115 14 27 36 72 49 99 21 44 126 155
145 155 4 0 -16 -21 -45 -46z m-833 -89 c12 -34 7 -29 -42 40 -51 74 -55 86
-9 35 22 -25 45 -58 51 -75z m594 16 c24 -20 20 -65 -14 -141 -33 -75 -38
-126 -15 -156 22 -29 17 -43 -5 -15 -30 35 -26 99 10 181 35 80 37 101 10 125
-11 10 -20 28 -19 39 0 21 0 21 9 1 4 -12 15 -27 24 -34z m73 -28 c-3 -10 -5
-4 -5 12 0 17 2 24 5 18 2 -7 2 -21 0 -30z m660 15 c-3 -8 -6 -5 -6 6 -1 11 2
17 5 13 3 -3 4 -12 1 -19z m-27 -88 c0 -5 -5 -10 -11 -10 -5 0 -7 5 -4 10 3 6
8 10 11 10 2 0 4 -4 4 -10z m-1285 -20 c3 -5 1 -10 -5 -10 -6 0 -8 -5 -4 -12
5 -9 2 -9 -9 1 -9 7 -17 17 -17 22 0 12 27 11 35 -1z m-47 -36 c-10 -10 -28 6
-28 24 0 15 1 15 17 -1 9 -9 14 -19 11 -23z m332 -128 c0 -2 -7 -7 -16 -10 -8
-3 -12 -2 -9 4 6 10 25 14 25 6z m341 -77 c9 0 10 -2 2 -5 -15 -7 -53 13 -53
28 0 6 8 4 18 -5 10 -10 25 -17 33 -18z"/>
<path d="M346 1593 c-3 -21 -6 -89 -6 -151 0 -104 1 -111 18 -101 35 23 56 62
59 118 3 31 10 67 16 80 10 21 9 26 -13 40 -13 9 -31 24 -39 34 -22 25 -28 22
-35 -20z"/>
<path d="M1823 488 c-59 -16 -87 -91 -53 -146 23 -38 60 -55 98 -46 28 7 72
41 72 56 0 14 -39 9 -65 -8 -23 -15 -27 -15 -51 0 -21 14 -25 24 -22 54 4 47
40 70 75 47 24 -16 63 -20 63 -7 0 13 -43 49 -65 54 -11 2 -35 1 -52 -4z"/>
<path d="M385 478 c-3 -7 -18 -52 -34 -100 -28 -83 -29 -88 -11 -88 11 0 24 9
30 20 7 13 21 20 40 20 19 0 33 -7 40 -20 13 -25 40 -26 39 -2 0 9 -12 53 -27
97 -22 65 -31 81 -50 83 -12 2 -24 -3 -27 -10z m39 -80 c9 -35 8 -38 -15 -38
-15 0 -19 4 -15 16 3 9 6 22 6 30 0 22 17 16 24 -8z"/>
<path d="M563 480 c-28 -11 -53 -59 -53 -100 0 -43 47 -90 90 -90 42 0 67 15
85 50 27 52 21 60 -40 60 -42 0 -55 -3 -55 -15 0 -10 10 -15 30 -15 33 0 38
-11 16 -30 -23 -18 -59 -8 -76 23 -13 24 -13 30 0 54 18 31 43 40 74 25 41
-20 56 -22 56 -7 0 21 -49 55 -79 54 -14 0 -36 -4 -48 -9z"/>
<path d="M727 483 c-4 -3 -7 -49 -7 -100 0 -91 1 -94 22 -91 15 2 23 11 25 33
6 41 8 41 31 0 13 -22 29 -35 42 -35 25 0 25 5 0 45 -20 32 -20 32 0 50 27 24
26 70 -2 89 -22 16 -99 22 -111 9z m88 -58 c0 -13 -8 -21 -22 -23 -19 -3 -23
1 -23 23 0 22 4 26 23 23 14 -2 22 -10 22 -23z"/>
<path d="M918 463 c-35 -38 -42 -76 -23 -117 26 -54 83 -70 136 -39 36 21 53
63 45 107 -14 74 -108 102 -158 49z m101 -27 c19 -23 17 -77 -4 -92 -40 -30
-85 -5 -85 46 0 51 60 81 89 46z"/>
<path d="M1105 477 c-3 -7 -5 -52 -3 -98 3 -76 5 -84 23 -84 17 0 21 8 23 45
l4 45 22 -45 c12 -25 27 -45 34 -45 7 0 23 23 36 50 l24 50 1 -52 c1 -46 4
-53 21 -53 19 0 20 7 20 100 0 97 -1 100 -23 100 -18 0 -27 -11 -46 -60 -14
-34 -27 -63 -31 -65 -4 -2 -18 24 -32 58 -19 45 -31 63 -47 65 -12 2 -24 -3
-26 -11z"/>
<path d="M1350 389 l0 -100 52 3 c41 2 54 7 56 21 3 14 -4 17 -32 17 -32 0
-36 3 -36 25 0 21 5 25 30 25 20 0 30 5 30 15 0 10 -10 15 -30 15 -25 0 -30 4
-30 25 0 22 4 25 35 25 24 0 35 5 35 15 0 12 -13 15 -55 15 l-55 0 0 -101z"/>
<path d="M1492 393 c3 -98 3 -98 30 -101 48 -6 102 15 121 47 26 45 22 88 -12
122 -26 25 -37 29 -86 29 l-56 0 3 -97z m108 45 c38 -42 14 -108 -41 -108 -29
0 -29 0 -28 58 1 31 3 60 6 65 8 14 43 7 63 -15z"/>
<path d="M1690 390 c0 -55 2 -100 4 -100 31 0 36 15 36 106 0 87 -1 94 -20 94
-19 0 -20 -7 -20 -100z"/>
<path d="M1991 401 c-17 -49 -31 -94 -31 -100 0 -14 38 -1 44 15 7 19 75 19
82 -1 6 -15 44 -21 44 -7 0 4 -13 46 -28 92 -25 74 -32 85 -54 88 -23 3 -27
-3 -57 -87z m68 -1 c9 -28 8 -30 -14 -30 -22 0 -23 2 -14 30 6 17 12 30 14 30
2 0 8 -13 14 -30z"/>
<path d="M2027 252 c-9 -13 -77 -203 -77 -213 0 -20 20 -7 26 16 6 23 11 25
60 25 49 0 54 -2 60 -25 7 -27 24 -34 24 -11 0 18 -68 198 -79 209 -5 5 -11 5
-14 -1z m35 -99 c10 -26 16 -48 14 -51 -2 -2 -22 -2 -44 0 l-39 3 20 53 c11
29 22 50 26 47 3 -3 13 -27 23 -52z"/>
<path d="M331 243 c0 -4 17 -53 37 -108 23 -62 43 -100 52 -100 13 0 90 172
90 202 0 35 -19 4 -50 -82 -19 -52 -38 -95 -41 -95 -4 0 -9 10 -12 22 -13 56
-55 162 -66 166 -6 2 -11 0 -10 -5z"/>
<path d="M558 228 c-6 -96 -3 -194 6 -200 16 -11 84 -10 91 2 4 6 -10 10 -34
10 l-41 0 0 45 c0 45 0 45 35 45 19 0 35 5 35 10 0 6 -16 10 -35 10 -34 0 -35
1 -35 40 l0 40 45 0 c25 0 45 5 45 10 0 6 -25 10 -55 10 -50 0 -55 -2 -57 -22z"/>
<path d="M710 240 c0 -5 11 -10 25 -10 l25 0 0 -100 c0 -60 4 -100 10 -100 6
0 10 40 10 100 l0 100 30 0 c17 0 30 5 30 10 0 6 -28 10 -65 10 -37 0 -65 -4
-65 -10z"/>
<path d="M882 138 l3 -113 48 0 c26 0 47 4 47 10 0 5 -18 8 -40 6 l-40 -3 0
46 0 46 40 0 c22 0 40 5 40 10 0 6 -18 10 -40 10 l-40 0 0 40 0 40 45 0 c25 0
45 5 45 10 0 6 -25 10 -55 10 l-56 0 3 -112z"/>
<path d="M1029 188 c-1 -35 -2 -83 -3 -108 -2 -61 18 -68 22 -7 4 54 21 62 49
21 58 -83 89 -94 38 -14 -14 22 -22 40 -17 40 18 0 52 42 52 65 0 41 -33 65
-90 65 l-50 0 -1 -62z m97 34 c6 -4 14 -17 18 -28 9 -30 -17 -54 -60 -54 -34
0 -34 0 -34 45 0 44 1 45 33 45 17 0 37 -4 43 -8z"/>
<path d="M1210 141 c0 -63 4 -112 10 -116 6 -4 10 35 10 109 0 71 -4 116 -10
116 -6 0 -10 -43 -10 -109z"/>
<path d="M1270 134 c0 -74 4 -113 10 -109 6 3 10 44 10 91 0 46 3 84 8 84 4 0
31 -38 61 -85 30 -47 60 -85 67 -85 11 0 14 24 14 110 0 67 -4 110 -10 110 -6
0 -10 -35 -10 -85 0 -47 -3 -85 -7 -85 -8 0 -81 105 -102 148 -7 12 -18 22
-26 22 -12 0 -15 -21 -15 -116z"/>
<path d="M1521 153 c-19 -54 -36 -104 -38 -111 -9 -23 14 -12 25 13 10 22 18
25 60 25 42 0 50 -3 60 -25 6 -14 16 -25 21 -25 14 0 -65 215 -80 218 -9 1
-25 -30 -48 -95z m68 16 c7 -23 15 -47 18 -55 4 -11 -5 -14 -36 -14 -23 0 -41
3 -41 8 0 15 34 102 40 102 4 0 12 -18 19 -41z"/>
<path d="M1700 140 c0 -67 4 -110 10 -110 6 0 10 20 10 45 0 61 26 61 64 0 16
-25 35 -45 43 -45 10 0 6 11 -12 37 -28 43 -32 63 -10 63 18 0 35 31 35 63 0
38 -30 57 -88 57 l-52 0 0 -110z m113 68 c8 -12 7 -24 -1 -42 -10 -22 -18 -26
-52 -26 l-40 0 0 46 0 45 41 -3 c26 -2 46 -10 52 -20z"/>
<path d="M1880 140 c0 -67 4 -110 10 -110 6 0 10 35 11 83 0 45 2 94 4 110 2
18 -1 27 -11 27 -11 0 -14 -21 -14 -110z"/>
</g>
</svg>
